<?xml version="1.0" standalone="no"?>
<!DOCTYPE svg PUBLIC "-//W3C//DTD SVG 20010904//EN"
 "http://www.w3.org/TR/2001/REC-SVG-20010904/DTD/svg10.dtd">
<svg version="1.0" xmlns="http://www.w3.org/2000/svg"
 width="225.000000pt" height="225.000000pt" viewBox="0 0 225.000000 225.000000"
 preserveAspectRatio="xMidYMid meet">
<metadata>
Created by potrace 1.10, written by Peter Selinger 2001-2011
</metadata>
<g transform="translate(0.000000,225.000000) scale(0.100000,-0.100000)"
fill="#000000" stroke="none">
<path d="M1520 1940 c0 -31 8 -66 20 -90 28 -56 31 -164 4 -190 -20 -21 -108
-37 -224 -41 l-65 -3 -3 32 c-2 24 1 32 12 32 9 0 16 1 16 3 0 1 -9 32 -19 70
-20 69 -39 97 -65 97 -8 0 -17 4 -20 9 -8 13 -75 -9 -70 -23 2 -6 -5 -29 -16
-51 -26 -51 -26 -96 1 -118 39 -34 20 -42 -98 -38 -106 3 -111 2 -127 -20 -9
-13 -16 -33 -16 -44 -1 -16 -4 -14 -16 10 -8 17 -12 22 -9 12 3 -10 5 -25 5
-32 0 -7 14 -16 31 -20 43 -10 97 -60 109 -103 16 -61 11 -144 -15 -246 -14
-53 -25 -101 -25 -106 0 -6 14 -10 30 -10 17 0 31 -6 31 -12 1 -7 2 -47 3 -88
1 -74 32 -219 49 -231 15 -11 27 -82 21 -129 -4 -34 2 -65 25 -130 l30 -85
-22 -17 c-12 -9 -31 -18 -42 -20 -11 -2 -21 -11 -23 -20 -4 -22 34 -38 90 -38
22 0 58 -5 78 -11 43 -13 81 -7 104 17 15 14 14 18 -14 44 -16 15 -30 35 -30
43 0 8 14 44 31 80 23 50 32 85 35 144 8 126 7 123 64 123 27 0 51 3 53 8 6 9
-44 282 -68 372 -22 84 -16 246 11 309 17 39 29 47 139 105 l120 62 3 51 c2
29 -3 87 -11 130 -8 43 -12 94 -10 115 4 29 1 38 -16 47 -12 7 -21 9 -21 5 0
-3 -9 4 -21 17 l-20 24 6 -28 c4 -19 2 -26 -5 -22 -5 3 -10 17 -10 31 0 13 -4
24 -10 24 -5 0 -10 -23 -10 -50z m-302 -189 c11 -33 12 -49 3 -67 -17 -38 -13
-58 14 -84 23 -22 29 -23 138 -17 124 6 172 20 204 61 25 31 33 33 33 8 0 -27
-23 -44 -127 -96 -75 -37 -98 -54 -119 -87 l-26 -41 -29 28 c-16 15 -29 38
-29 50 0 12 -12 32 -26 43 -22 17 -41 21 -105 21 -88 0 -119 -17 -119 -65 0
-14 -6 -28 -13 -31 -17 -6 -119 95 -110 109 3 6 42 8 99 5 86 -5 95 -4 114 17
24 26 25 44 3 82 -19 34 -13 67 18 107 19 24 23 26 42 13 12 -7 27 -33 35 -56z
m-77 -233 l2 -23 4 23 c2 12 11 22 19 22 17 0 18 -12 2 -29 -10 -11 -10 -13 0
-7 6 4 12 2 12 -3 0 -6 -13 -11 -30 -11 -25 0 -30 4 -30 25 0 31 19 33 21 3z
m76 7 c-4 -8 -2 -17 3 -20 6 -4 10 1 10 9 0 9 5 16 11 16 6 0 8 -7 5 -16 -3
-9 -6 -20 -6 -25 0 -5 -10 -7 -22 -6 -30 5 -36 57 -6 57 5 0 8 -7 5 -15z
m-109 -19 c-2 -13 -10 -21 -23 -21 -13 0 -21 8 -23 21 -2 17 2 22 23 22 21 0
25 -5 23 -22z m7 -166 l0 -110 -32 0 -33 0 2 78 2 77 6 -75 6 -75 2 88 2 88
-22 -15 c-29 -20 -38 -20 -38 1 0 29 31 53 69 53 l36 0 0 -110z m167 93 c24
-22 26 -163 2 -187 -19 -20 -58 -30 -84 -23 -11 3 -20 1 -20 -5 0 -5 -5 -6
-10 -3 -6 4 -8 10 -5 15 3 5 1 11 -5 15 -5 3 -11 45 -12 93 l-2 87 -3 -83 c-3
-54 0 -89 8 -98 7 -8 7 -14 1 -14 -16 0 -22 27 -22 110 0 69 2 79 23 93 30 21
105 22 129 0z m-176 -242 c22 0 61 -3 89 -7 37 -5 57 -2 82 11 18 10 35 16 36
14 13 -16 89 -407 82 -419 -2 -4 -18 -10 -35 -13 -43 -9 -70 -58 -70 -128 0
-54 -7 -84 -49 -199 -17 -48 -18 -58 -6 -86 7 -18 11 -34 9 -36 -2 -3 -29 0
-59 5 -45 9 -54 14 -49 26 16 39 14 65 -10 136 -17 49 -26 96 -26 136 0 43
-10 89 -31 153 -25 72 -32 111 -35 185 -2 86 -4 95 -30 122 -26 27 -27 29 -14
76 18 66 18 66 50 43 16 -12 43 -20 66 -19z"/>
<path d="M1211 1406 c-15 -17 -11 -152 4 -149 14 3 23 131 10 145 -7 8 -5 9 8
5 11 -4 16 -3 12 3 -9 14 -21 12 -34 -4z"/>
<path d="M1171 697 c-22 -28 -24 -72 -3 -97 20 -24 20 -25 41 -6 14 13 21 31
21 56 0 52 -32 78 -59 47z m31 -63 c-3 -28 -7 -33 -13 -21 -10 17 0 84 10 68
4 -6 5 -27 3 -47z"/>
<path d="M800 1955 c0 -8 -11 -17 -24 -21 -40 -10 -58 -37 -46 -68 7 -19 6
-44 -5 -89 -22 -98 -22 -167 0 -183 10 -8 24 -14 31 -14 7 0 19 -8 26 -17 21
-28 39 -27 32 1 -8 33 13 71 31 56 9 -8 15 -8 20 0 6 10 5 11 -15 14 -5 0 -18
9 -30 18 -25 22 -28 104 -5 168 15 44 11 150 -6 150 -5 0 -9 -7 -9 -15z m-20
-323 c0 -26 -25 -5 -28 24 -2 28 -2 28 13 10 8 -11 15 -26 15 -34z"/>
</g>
</svg>
